# xmcd
#
# Track frame offsets: 
#        150
#        11359
#        26741
#        41321
#        53798
#        68823
#        82773
#        96555
#        111235
#        123484
#        138238
#        153044
#        167627
#        179747
#        195842
#        210539
#        225532
#        237578
#
# Disc length: 3331 seconds
#
# Revision: 4
# Processed by: cddbd v1.5.2PL0 Copyright (c) Steve Scherf et al.
# Submitted via: ExactAudioCopy v0.99pb4
#
DISCID=e50d0112
DTITLE=Frank Sinatra - 10 CD Set [CD 10)
DYEAR=2005
DGENRE=Jazz
TTITLE0=Blue Skies
TTITLE1=Guess I'll Hang My Tears Out To Dry
TTITLE2=Sweet Lorraine
TTITLE3=Falling In Love With You
TTITLE4=There's No Business Like Show Business
TTITLE5=September Song
TTITLE6=I Believe
TTITLE7=Everybody Loves Somebody
TTITLE8=Why Was I Born
TTITLE9=I've Got A Crush On You
TTITLE10=Body And Soul
TTITLE11=That Old Feeling 
TTITLE12=Almost Like Being In Love
TTITLE13=It Never Entered My Mind
TTITLE14=The Song Is You
TTITLE15=Night And Day
TTITLE16=The Nearness Of You
TTITLE17=All Of Me
EXTD=YEAR: 2005
EXTT0=
EXTT1=
EXTT2=
EXTT3=
EXTT4=
EXTT5=
EXTT6=
EXTT7=
EXTT8=
EXTT9=
EXTT10=
EXTT11=
EXTT12=
EXTT13=
EXTT14=
EXTT15=
EXTT16=
EXTT17=
PLAYORDER=
